<svg width="238" height="84" viewBox="0 0 238 84" fill="none" xmlns="http://www.w3.org/2000/svg">
<path d="M8.33333 83.3335C6.04167 83.3335 4.07986 82.5208 2.44792 80.8954C0.815972 79.27 0 77.316 0 75.0335V16.9335C0 14.651 0.815972 12.697 2.44792 11.0716C4.07986 9.4462 6.04167 8.6335 8.33333 8.6335H12.5V0.333496H20.8333V8.6335H54.1667V0.333496H62.5V8.6335H66.6667C68.9583 8.6335 70.9201 9.4462 72.5521 11.0716C74.184 12.697 75 14.651 75 16.9335V75.0335C75 77.316 74.184 79.27 72.5521 80.8954C70.9201 82.5208 68.9583 83.3335 66.6667 83.3335H8.33333ZM8.33333 75.0335H66.6667V33.5335H8.33333V75.0335ZM8.33333 25.2335H66.6667V16.9335H8.33333V25.2335Z" fill="black"/>
<mask id="mask0_2175_2184" style="mask-type:alpha" maskUnits="userSpaceOnUse" x="17" y="33" width="42" height="42">
<rect x="17.4532" y="33.7451" width="41" height="40.836" fill="#D9D9D9"/>
</mask>
<g mask="url(#mask0_2175_2184)">
<path d="M33.7252 64.3722L51.8335 46.3363L49.3992 43.9542L33.6825 59.5655L26.4648 52.3341L24.0304 54.7587L33.7252 64.3722ZM33.7252 69.1789L19.2471 54.7587L26.4648 47.5273L33.7252 54.7587L49.3564 39.1475L56.7023 46.2938L33.7252 69.1789Z" fill="black"/>
</g>
<path d="M130.648 35.288C129.496 35.288 128.528 35.16 127.744 34.904C126.976 34.648 126.328 34.296 125.8 33.848C125.272 33.4 124.728 32.8 124.168 32.048L126.448 30.152C127.104 31.064 127.736 31.712 128.344 32.096C128.968 32.464 129.736 32.648 130.648 32.648C131.912 32.648 132.832 32.464 133.408 32.096C133.984 31.728 134.272 31.136 134.272 30.32C134.272 29.904 134.136 29.568 133.864 29.312C133.592 29.04 133.12 28.792 132.448 28.568C131.792 28.344 130.808 28.096 129.496 27.824C127.96 27.504 126.816 26.936 126.064 26.12C125.328 25.288 124.96 24.184 124.96 22.808C124.96 21.816 125.208 20.952 125.704 20.216C126.216 19.48 126.936 18.912 127.864 18.512C128.792 18.112 129.872 17.912 131.104 17.912C132.704 17.912 133.976 18.152 134.92 18.632C135.864 19.096 136.632 19.784 137.224 20.696L134.992 22.52C134.496 22.024 134.08 21.648 133.744 21.392C133.424 21.12 133.056 20.912 132.64 20.768C132.224 20.624 131.712 20.552 131.104 20.552C130.192 20.552 129.504 20.752 129.04 21.152C128.576 21.552 128.344 22.128 128.344 22.88C128.344 23.584 128.64 24.104 129.232 24.44C129.824 24.76 130.584 25.024 131.512 25.232C132.888 25.52 133.984 25.816 134.8 26.12C135.616 26.424 136.296 26.912 136.84 27.584C137.384 28.256 137.656 29.176 137.656 30.344C137.656 32.008 137.072 33.248 135.904 34.064C134.752 34.88 133 35.288 130.648 35.288ZM145.787 35C143.659 35 142.131 34.552 141.203 33.656C140.275 32.76 139.811 31.464 139.811 29.768V23.432C139.811 21.736 140.275 20.44 141.203 19.544C142.131 18.648 143.659 18.2 145.787 18.2H151.403V20.84H145.787C144.907 20.84 144.251 21.048 143.819 21.464C143.403 21.88 143.195 22.536 143.195 23.432V25.28H150.347V27.92H143.195V29.768C143.195 30.648 143.403 31.304 143.819 31.736C144.251 32.152 144.907 32.36 145.787 32.36H151.451V35H145.787ZM168.161 18.2V31.04C168.161 32.336 167.897 33.32 167.369 33.992C166.841 34.664 165.993 35 164.825 35H162.449L157.505 23.552V35H154.337V18.2H158.153L164.249 32.12H164.297C164.569 32.12 164.753 32.008 164.849 31.784C164.945 31.544 164.993 31.12 164.993 30.512V18.2H168.161ZM181.49 31.088H174.914L173.786 35H170.402L174.506 21.608C174.794 20.648 175.098 19.904 175.418 19.376C175.738 18.848 176.114 18.472 176.546 18.248C176.994 18.024 177.546 17.912 178.202 17.912C178.858 17.912 179.402 18.024 179.834 18.248C180.266 18.472 180.642 18.848 180.962 19.376C181.298 19.904 181.61 20.648 181.898 21.608L186.002 35H182.618L181.49 31.088ZM180.746 28.568L178.73 21.656C178.618 21.24 178.442 21.032 178.202 21.032C177.962 21.032 177.786 21.24 177.674 21.656L175.658 28.568H180.746ZM188.532 18.2H191.916V35H188.532V18.2ZM94.0471 66C91.9991 66 90.5271 65.552 89.6311 64.656C88.7511 63.76 88.3111 62.464 88.3111 60.768V49.2H91.6951V60.768C91.6951 61.648 91.8871 62.304 92.2711 62.736C92.6551 63.152 93.2471 63.36 94.0471 63.36H99.4231V66H94.0471ZM111.588 62.088H105.012L103.884 66H100.5L104.604 52.608C104.892 51.648 105.196 50.904 105.516 50.376C105.836 49.848 106.212 49.472 106.644 49.248C107.092 49.024 107.644 48.912 108.3 48.912C108.956 48.912 109.5 49.024 109.932 49.248C110.364 49.472 110.74 49.848 111.06 50.376C111.396 50.904 111.708 51.648 111.996 52.608L116.1 66H112.716L111.588 62.088ZM110.844 59.568L108.828 52.656C108.716 52.24 108.54 52.032 108.3 52.032C108.06 52.032 107.884 52.24 107.772 52.656L105.756 59.568H110.844ZM118.63 49.2H126.022C127.782 49.2 129.126 49.584 130.054 50.352C130.998 51.12 131.47 52.232 131.47 53.688C131.47 54.488 131.23 55.208 130.75 55.848C130.27 56.488 129.574 56.928 128.662 57.168C129.654 57.36 130.454 57.824 131.062 58.56C131.67 59.28 131.974 60.224 131.974 61.392C131.974 62.816 131.47 63.944 130.462 64.776C129.47 65.592 128.11 66 126.382 66H118.63V49.2ZM125.95 55.968C126.59 55.968 127.102 55.784 127.486 55.416C127.886 55.032 128.086 54.528 128.086 53.904C128.086 53.28 127.886 52.784 127.486 52.416C127.102 52.032 126.59 51.84 125.95 51.84H122.014V55.968H125.95ZM125.662 63.36C126.654 63.36 127.39 63.168 127.87 62.784C128.35 62.384 128.59 61.784 128.59 60.984C128.59 60.184 128.35 59.592 127.87 59.208C127.39 58.808 126.654 58.608 125.662 58.608H122.014V63.36H125.662ZM134.123 58.92H140.819V60.96H134.123V58.92ZM152.744 62.088H146.168L145.04 66H141.656L145.76 52.608C146.048 51.648 146.352 50.904 146.672 50.376C146.992 49.848 147.368 49.472 147.8 49.248C148.248 49.024 148.8 48.912 149.456 48.912C150.112 48.912 150.656 49.024 151.088 49.248C151.52 49.472 151.896 49.848 152.216 50.376C152.552 50.904 152.864 51.648 153.152 52.608L157.256 66H153.872L152.744 62.088ZM152 59.568L149.984 52.656C149.872 52.24 149.696 52.032 149.456 52.032C149.216 52.032 149.04 52.24 148.928 52.656L146.912 59.568H152ZM165.278 66.288C162.99 66.288 161.238 65.776 160.022 64.752C158.822 63.712 158.222 62.184 158.222 60.168V55.032C158.222 53.016 158.822 51.496 160.022 50.472C161.238 49.432 162.99 48.912 165.278 48.912C166.926 48.912 168.27 49.176 169.31 49.704C170.366 50.232 171.198 51.016 171.806 52.056L169.238 53.808C168.742 53.008 168.214 52.432 167.654 52.08C167.094 51.728 166.302 51.552 165.278 51.552C163.998 51.552 163.062 51.848 162.47 52.44C161.894 53.016 161.606 53.88 161.606 55.032V60.168C161.606 61.32 161.894 62.192 162.47 62.784C163.062 63.36 163.998 63.648 165.278 63.648C166.398 63.648 167.246 63.464 167.822 63.096C168.414 62.712 168.71 62.16 168.71 61.44V60.696C168.71 59.704 168.254 59.208 167.342 59.208H164.606V56.568H168.302C169.582 56.568 170.526 56.864 171.134 57.456C171.742 58.048 172.046 58.968 172.046 60.216V61.68C172.046 63.12 171.438 64.248 170.222 65.064C169.006 65.88 167.358 66.288 165.278 66.288ZM180.322 66C178.194 66 176.666 65.552 175.738 64.656C174.81 63.76 174.346 62.464 174.346 60.768V54.432C174.346 52.736 174.81 51.44 175.738 50.544C176.666 49.648 178.194 49.2 180.322 49.2H185.938V51.84H180.322C179.442 51.84 178.786 52.048 178.354 52.464C177.938 52.88 177.73 53.536 177.73 54.432V56.28H184.882V58.92H177.73V60.768C177.73 61.648 177.938 62.304 178.354 62.736C178.786 63.152 179.442 63.36 180.322 63.36H185.986V66H180.322ZM202.696 49.2V62.04C202.696 63.336 202.432 64.32 201.904 64.992C201.376 65.664 200.528 66 199.36 66H196.984L192.04 54.552V66H188.872V49.2H192.688L198.784 63.12H198.832C199.104 63.12 199.288 63.008 199.384 62.784C199.48 62.544 199.528 62.12 199.528 61.512V49.2H202.696ZM206.497 49.2H212.737C214.625 49.2 216.113 49.472 217.201 50.016C218.305 50.56 219.097 51.44 219.577 52.656C220.073 53.856 220.321 55.504 220.321 57.6C220.321 59.696 220.073 61.352 219.577 62.568C219.097 63.768 218.305 64.64 217.201 65.184C216.113 65.728 214.625 66 212.737 66H206.497V49.2ZM212.737 63.36C213.793 63.36 214.625 63.176 215.233 62.808C215.841 62.44 216.273 61.84 216.529 61.008C216.801 60.176 216.937 59.04 216.937 57.6C216.937 56.16 216.801 55.024 216.529 54.192C216.273 53.36 215.841 52.76 215.233 52.392C214.625 52.024 213.793 51.84 212.737 51.84H209.881V63.36H212.737ZM232.127 62.088H225.551L224.423 66H221.039L225.143 52.608C225.431 51.648 225.735 50.904 226.055 50.376C226.375 49.848 226.751 49.472 227.183 49.248C227.631 49.024 228.183 48.912 228.839 48.912C229.495 48.912 230.039 49.024 230.471 49.248C230.903 49.472 231.279 49.848 231.599 50.376C231.935 50.904 232.247 51.648 232.535 52.608L236.639 66H233.255L232.127 62.088ZM231.383 59.568L229.367 52.656C229.255 52.24 229.079 52.032 228.839 52.032C228.599 52.032 228.423 52.24 228.311 52.656L226.295 59.568H231.383Z" fill="black"/>
</svg>
