<svg width="75" height="83" viewBox="0 0 75 83" fill="none" xmlns="http://www.w3.org/2000/svg">
<path d="M8.33333 83C6.04167 83 4.07986 82.1873 2.44792 80.5619C0.815972 78.9365 0 76.9825 0 74.7V16.6C0 14.3175 0.815972 12.3635 2.44792 10.7381C4.07986 9.11271 6.04167 8.3 8.33333 8.3H12.5V0H20.8333V8.3H54.1667V0H62.5V8.3H66.6667C68.9583 8.3 70.9201 9.11271 72.5521 10.7381C74.184 12.3635 75 14.3175 75 16.6V74.7C75 76.9825 74.184 78.9365 72.5521 80.5619C70.9201 82.1873 68.9583 83 66.6667 83H8.33333ZM8.33333 74.7H66.6667V33.2H8.33333V74.7ZM8.33333 24.9H66.6667V16.6H8.33333V24.9Z" fill="white"/>
<mask id="mask0_2158_2191" style="mask-type:alpha" maskUnits="userSpaceOnUse" x="17" y="33" width="42" height="42">
<rect x="17.4532" y="33.4116" width="41" height="40.836" fill="#D9D9D9"/>
</mask>
<g mask="url(#mask0_2158_2191)">
<path d="M33.7252 64.0387L51.8335 46.0028L49.3992 43.6207L33.6825 59.232L26.4648 52.0006L24.0304 54.4252L33.7252 64.0387ZM33.7252 68.8454L19.2471 54.4252L26.4648 47.1939L33.7252 54.4252L49.3564 38.814L56.7023 45.9603L33.7252 68.8454Z" fill="white"/>
</g>
</svg>
