<svg width="152" height="145" viewBox="0 0 152 145" fill="none" xmlns="http://www.w3.org/2000/svg">
<path d="M46.8333 83C44.5417 83 42.5799 82.1873 40.9479 80.5619C39.316 78.9365 38.5 76.9825 38.5 74.7V16.6C38.5 14.3175 39.316 12.3635 40.9479 10.7381C42.5799 9.11271 44.5417 8.3 46.8333 8.3H51V0H59.3333V8.3H92.6667V0H101V8.3H105.167C107.458 8.3 109.42 9.11271 111.052 10.7381C112.684 12.3635 113.5 14.3175 113.5 16.6V74.7C113.5 76.9825 112.684 78.9365 111.052 80.5619C109.42 82.1873 107.458 83 105.167 83H46.8333ZM46.8333 74.7H105.167V33.2H46.8333V74.7ZM46.8333 24.9H105.167V16.6H46.8333V24.9Z" fill="white"/>
<mask id="mask0_2158_2192" style="mask-type:alpha" maskUnits="userSpaceOnUse" x="55" y="33" width="42" height="42">
<rect x="55.9532" y="33.4116" width="41" height="40.836" fill="#D9D9D9"/>
</mask>
<g mask="url(#mask0_2158_2192)">
<path d="M72.2252 64.0387L90.3335 46.0028L87.8992 43.6207L72.1825 59.232L64.9648 52.0006L62.5304 54.4252L72.2252 64.0387ZM72.2252 68.8454L57.7471 54.4252L64.9648 47.1939L72.2252 54.4252L87.8564 38.814L95.2023 45.9603L72.2252 68.8454Z" fill="white"/>
</g>
<path d="M49.8734 114.24C48.9134 114.24 48.1068 114.133 47.4534 113.92C46.8134 113.707 46.2734 113.413 45.8334 113.04C45.3934 112.667 44.9401 112.167 44.4734 111.54L46.3734 109.96C46.9201 110.72 47.4468 111.26 47.9534 111.58C48.4734 111.887 49.1134 112.04 49.8734 112.04C50.9268 112.04 51.6934 111.887 52.1734 111.58C52.6534 111.273 52.8934 110.78 52.8934 110.1C52.8934 109.753 52.7801 109.473 52.5534 109.26C52.3268 109.033 51.9334 108.827 51.3734 108.64C50.8268 108.453 50.0068 108.247 48.9134 108.02C47.6334 107.753 46.6801 107.28 46.0534 106.6C45.4401 105.907 45.1334 104.987 45.1334 103.84C45.1334 103.013 45.3401 102.293 45.7534 101.68C46.1801 101.067 46.7801 100.593 47.5534 100.26C48.3268 99.9267 49.2268 99.76 50.2534 99.76C51.5868 99.76 52.6468 99.96 53.4334 100.36C54.2201 100.747 54.8601 101.32 55.3534 102.08L53.4934 103.6C53.0801 103.187 52.7334 102.873 52.4534 102.66C52.1868 102.433 51.8801 102.26 51.5334 102.14C51.1868 102.02 50.7601 101.96 50.2534 101.96C49.4934 101.96 48.9201 102.127 48.5334 102.46C48.1468 102.793 47.9534 103.273 47.9534 103.9C47.9534 104.487 48.2001 104.92 48.6934 105.2C49.1868 105.467 49.8201 105.687 50.5934 105.86C51.7401 106.1 52.6534 106.347 53.3334 106.6C54.0134 106.853 54.5801 107.26 55.0334 107.82C55.4868 108.38 55.7134 109.147 55.7134 110.12C55.7134 111.507 55.2268 112.54 54.2534 113.22C53.2934 113.9 51.8334 114.24 49.8734 114.24ZM62.4892 114C60.7159 114 59.4426 113.627 58.6692 112.88C57.8959 112.133 57.5092 111.053 57.5092 109.64V104.36C57.5092 102.947 57.8959 101.867 58.6692 101.12C59.4426 100.373 60.7159 100 62.4892 100H67.1692V102.2H62.4892C61.7559 102.2 61.2092 102.373 60.8492 102.72C60.5026 103.067 60.3292 103.613 60.3292 104.36V105.9H66.2892V108.1H60.3292V109.64C60.3292 110.373 60.5026 110.92 60.8492 111.28C61.2092 111.627 61.7559 111.8 62.4892 111.8H67.2092V114H62.4892ZM81.1341 100V110.7C81.1341 111.78 80.9141 112.6 80.4741 113.16C80.0341 113.72 79.3274 114 78.3541 114H76.3741L72.2541 104.46V114H69.6141V100H72.7941L77.8741 111.6H77.9141C78.1407 111.6 78.2941 111.507 78.3741 111.32C78.4541 111.12 78.4941 110.767 78.4941 110.26V100H81.1341ZM92.2416 110.74H86.7616L85.8216 114H83.0016L86.4216 102.84C86.6616 102.04 86.9149 101.42 87.1816 100.98C87.4482 100.54 87.7616 100.227 88.1216 100.04C88.4949 99.8533 88.9549 99.76 89.5016 99.76C90.0482 99.76 90.5016 99.8533 90.8616 100.04C91.2216 100.227 91.5349 100.54 91.8016 100.98C92.0816 101.42 92.3416 102.04 92.5816 102.84L96.0016 114H93.1816L92.2416 110.74ZM91.6216 108.64L89.9416 102.88C89.8482 102.533 89.7016 102.36 89.5016 102.36C89.3016 102.36 89.1549 102.533 89.0616 102.88L87.3816 108.64H91.6216ZM98.1102 100H100.93V114H98.1102V100ZM19.3726 140C17.6659 140 16.4392 139.627 15.6926 138.88C14.9592 138.133 14.5926 137.053 14.5926 135.64V126H17.4126V135.64C17.4126 136.373 17.5726 136.92 17.8926 137.28C18.2126 137.627 18.7059 137.8 19.3726 137.8H23.8526V140H19.3726ZM33.9896 136.74H28.5096L27.5696 140H24.7496L28.1696 128.84C28.4096 128.04 28.6629 127.42 28.9296 126.98C29.1963 126.54 29.5096 126.227 29.8696 126.04C30.2429 125.853 30.7029 125.76 31.2496 125.76C31.7963 125.76 32.2496 125.853 32.6096 126.04C32.9696 126.227 33.2829 126.54 33.5496 126.98C33.8296 127.42 34.0896 128.04 34.3296 128.84L37.7496 140H34.9296L33.9896 136.74ZM33.3696 134.64L31.6896 128.88C31.5963 128.533 31.4496 128.36 31.2496 128.36C31.0496 128.36 30.9029 128.533 30.8096 128.88L29.1296 134.64H33.3696ZM39.8582 126H46.0182C47.4849 126 48.6049 126.32 49.3782 126.96C50.1649 127.6 50.5582 128.527 50.5582 129.74C50.5582 130.407 50.3582 131.007 49.9582 131.54C49.5582 132.073 48.9782 132.44 48.2182 132.64C49.0449 132.8 49.7115 133.187 50.2182 133.8C50.7249 134.4 50.9782 135.187 50.9782 136.16C50.9782 137.347 50.5582 138.287 49.7182 138.98C48.8915 139.66 47.7582 140 46.3182 140H39.8582V126ZM45.9582 131.64C46.4915 131.64 46.9182 131.487 47.2382 131.18C47.5715 130.86 47.7382 130.44 47.7382 129.92C47.7382 129.4 47.5715 128.987 47.2382 128.68C46.9182 128.36 46.4915 128.2 45.9582 128.2H42.6782V131.64H45.9582ZM45.7182 137.8C46.5449 137.8 47.1582 137.64 47.5582 137.32C47.9582 136.987 48.1582 136.487 48.1582 135.82C48.1582 135.153 47.9582 134.66 47.5582 134.34C47.1582 134.007 46.5449 133.84 45.7182 133.84H42.6782V137.8H45.7182ZM52.7691 134.1H58.3491V135.8H52.7691V134.1ZM68.2865 136.74H62.8065L61.8665 140H59.0465L62.4665 128.84C62.7065 128.04 62.9598 127.42 63.2265 126.98C63.4932 126.54 63.8065 126.227 64.1665 126.04C64.5398 125.853 64.9998 125.76 65.5465 125.76C66.0932 125.76 66.5465 125.853 66.9065 126.04C67.2665 126.227 67.5798 126.54 67.8465 126.98C68.1265 127.42 68.3865 128.04 68.6265 128.84L72.0465 140H69.2265L68.2865 136.74ZM67.6665 134.64L65.9865 128.88C65.8932 128.533 65.7465 128.36 65.5465 128.36C65.3465 128.36 65.1998 128.533 65.1065 128.88L63.4265 134.64H67.6665ZM78.732 140.24C76.8253 140.24 75.3653 139.813 74.352 138.96C73.352 138.093 72.852 136.82 72.852 135.14V130.86C72.852 129.18 73.352 127.913 74.352 127.06C75.3653 126.193 76.8253 125.76 78.732 125.76C80.1053 125.76 81.2253 125.98 82.092 126.42C82.972 126.86 83.6653 127.513 84.172 128.38L82.032 129.84C81.6186 129.173 81.1786 128.693 80.712 128.4C80.2453 128.107 79.5853 127.96 78.732 127.96C77.6653 127.96 76.8853 128.207 76.392 128.7C75.912 129.18 75.672 129.9 75.672 130.86V135.14C75.672 136.1 75.912 136.827 76.392 137.32C76.8853 137.8 77.6653 138.04 78.732 138.04C79.6653 138.04 80.372 137.887 80.852 137.58C81.3453 137.26 81.592 136.8 81.592 136.2V135.58C81.592 134.753 81.212 134.34 80.452 134.34H78.172V132.14H81.252C82.3186 132.14 83.1053 132.387 83.612 132.88C84.1186 133.373 84.372 134.14 84.372 135.18V136.4C84.372 137.6 83.8653 138.54 82.852 139.22C81.8386 139.9 80.4653 140.24 78.732 140.24ZM91.2685 140C89.4952 140 88.2218 139.627 87.4485 138.88C86.6752 138.133 86.2885 137.053 86.2885 135.64V130.36C86.2885 128.947 86.6752 127.867 87.4485 127.12C88.2218 126.373 89.4952 126 91.2685 126H95.9485V128.2H91.2685C90.5352 128.2 89.9885 128.373 89.6285 128.72C89.2818 129.067 89.1085 129.613 89.1085 130.36V131.9H95.0685V134.1H89.1085V135.64C89.1085 136.373 89.2818 136.92 89.6285 137.28C89.9885 137.627 90.5352 137.8 91.2685 137.8H95.9885V140H91.2685ZM109.913 126V136.7C109.913 137.78 109.693 138.6 109.253 139.16C108.813 139.72 108.107 140 107.133 140H105.153L101.033 130.46V140H98.3934V126H101.573L106.653 137.6H106.693C106.92 137.6 107.073 137.507 107.153 137.32C107.233 137.12 107.273 136.767 107.273 136.26V126H109.913ZM113.081 126H118.281C119.854 126 121.094 126.227 122.001 126.68C122.921 127.133 123.581 127.867 123.981 128.88C124.394 129.88 124.601 131.253 124.601 133C124.601 134.747 124.394 136.127 123.981 137.14C123.581 138.14 122.921 138.867 122.001 139.32C121.094 139.773 119.854 140 118.281 140H113.081V126ZM118.281 137.8C119.161 137.8 119.854 137.647 120.361 137.34C120.868 137.033 121.228 136.533 121.441 135.84C121.668 135.147 121.781 134.2 121.781 133C121.781 131.8 121.668 130.853 121.441 130.16C121.228 129.467 120.868 128.967 120.361 128.66C119.854 128.353 119.161 128.2 118.281 128.2H115.901V137.8H118.281ZM134.439 136.74H128.959L128.019 140H125.199L128.619 128.84C128.859 128.04 129.112 127.42 129.379 126.98C129.645 126.54 129.959 126.227 130.319 126.04C130.692 125.853 131.152 125.76 131.699 125.76C132.245 125.76 132.699 125.853 133.059 126.04C133.419 126.227 133.732 126.54 133.999 126.98C134.279 127.42 134.539 128.04 134.779 128.84L138.199 140H135.379L134.439 136.74ZM133.819 134.64L132.139 128.88C132.045 128.533 131.899 128.36 131.699 128.36C131.499 128.36 131.352 128.533 131.259 128.88L129.579 134.64H133.819Z" fill="white"/>
</svg>
